<?xml version="1.0" standalone="no"?>
<!DOCTYPE svg PUBLIC "-//W3C//DTD SVG 20010904//EN"
 "http://www.w3.org/TR/2001/REC-SVG-20010904/DTD/svg10.dtd">
<svg version="1.0" xmlns="http://www.w3.org/2000/svg"
 width="500.000000pt" height="500.000000pt" viewBox="0 0 500.000000 500.000000"
 preserveAspectRatio="xMidYMid meet">

<g transform="translate(0.000000,500.000000) scale(0.100000,-0.100000)"
fill="#000000" stroke="none">
<path d="M1876 2907 l-79 -130 36 -228 c37 -236 46 -265 93 -313 50 -50 82
-61 174 -61 80 0 99 5 330 82 135 45 268 92 295 103 l50 21 -50 -7 c-27 -3
-160 -28 -295 -55 -264 -53 -306 -57 -349 -35 -53 28 -62 55 -78 240 -8 94
-22 248 -31 342 l-17 171 -79 -130z"/>
<path d="M2727 1983 c-3 -5 -8 -29 -12 -55 l-7 -48 61 0 c59 0 61 -1 56 -22
-3 -13 -20 -101 -39 -195 l-33 -173 62 0 61 0 28 148 c15 81 32 168 37 194
l10 47 62 3 c61 3 62 4 65 33 8 69 20 35 51 -142 18 -104 37 -209 43 -235 l10
-48 56 0 57 0 135 242 c74 133 137 245 138 250 2 5 -26 8 -63 6 l-67 -3 -86
-163 c-48 -89 -89 -157 -91 -151 -2 6 -13 79 -25 162 l-21 152 -242 3 c-133 1
-244 -1 -246 -5z"/>
</g>
</svg>
